<svg width="48" height="48" viewBox="0 0 48 48" fill="none" xmlns="http://www.w3.org/2000/svg">
<path d="M44.7806 12.2528C42.6344 8.48345 39.7233 5.49923 36.0465 3.29949C32.3691 1.09964 28.3545 0 23.9998 0C19.6456 0 15.6297 1.09998 11.9531 3.29949C8.27593 5.49912 5.36493 8.48345 3.21878 12.2528C1.07296 16.0221 0 20.1381 0 24.6009C0 29.9617 1.52577 34.7822 4.57807 39.0638C7.63005 43.3457 11.5728 46.3086 16.4059 47.9528C16.9684 48.0599 17.3849 47.9846 17.6557 47.7289C17.9266 47.4728 18.0619 47.1522 18.0619 46.7682C18.0619 46.7042 18.0565 46.1278 18.0461 45.0385C18.0354 43.9492 18.0303 42.9989 18.0303 42.188L17.3116 42.3155C16.8533 42.4015 16.2752 42.438 15.5772 42.4277C14.8795 42.4177 14.1553 42.3427 13.4054 42.2034C12.6552 42.0653 11.9575 41.745 11.3116 41.2431C10.666 40.7412 10.2078 40.0843 9.93687 39.2734L9.62439 38.5362C9.4161 38.0455 9.08818 37.5003 8.64019 36.9028C8.1922 36.3046 7.73918 35.8992 7.2809 35.6856L7.0621 35.5251C6.91631 35.4184 6.78103 35.2897 6.65592 35.1404C6.53093 34.991 6.43735 34.8416 6.37485 34.6919C6.31224 34.5421 6.36412 34.4193 6.53104 34.3229C6.69795 34.2265 6.9996 34.1797 7.4373 34.1797L8.06206 34.2754C8.47875 34.361 8.99416 34.6167 9.60895 35.0441C10.2234 35.4711 10.7285 36.0263 11.1244 36.7093C11.6038 37.5851 12.1814 38.2525 12.8588 38.7117C13.5357 39.1709 14.2181 39.4001 14.9055 39.4001C15.5928 39.4001 16.1865 39.3467 16.6867 39.2405C17.1864 39.1337 17.6551 38.9731 18.0928 38.7597C18.2803 37.3283 18.7908 36.2287 19.6239 35.46C18.4365 35.3321 17.369 35.1395 16.4208 34.8833C15.4732 34.6268 14.4939 34.2106 13.4837 33.6334C12.4729 33.0571 11.6344 32.3414 10.9679 31.4876C10.3013 30.6333 9.75431 29.5118 9.32755 28.124C8.90058 26.7357 8.68703 25.1342 8.68703 23.319C8.68703 20.7346 9.51012 18.5353 11.156 16.7199C10.385 14.7769 10.4578 12.5987 11.3745 10.1856C11.9787 9.99317 12.8747 10.1376 14.062 10.6179C15.2496 11.0984 16.1191 11.5101 16.6714 11.8514C17.2237 12.1926 17.6662 12.4817 17.9996 12.7162C19.9375 12.1612 21.9373 11.8836 23.9996 11.8836C26.0619 11.8836 28.0621 12.1612 30.0001 12.7162L31.1875 11.9478C31.9996 11.435 32.9585 10.9651 34.062 10.538C35.1661 10.1111 36.0105 9.99351 36.5941 10.1859C37.5312 12.5992 37.6147 14.7773 36.8435 16.7203C38.4892 18.5356 39.3126 20.7355 39.3126 23.3194C39.3126 25.1345 39.0983 26.7411 38.672 28.14C38.2451 29.5393 37.6934 30.6597 37.0165 31.5036C36.3389 32.3474 35.495 33.0575 34.4848 33.6338C33.4743 34.2105 32.4947 34.6267 31.5471 34.8832C30.599 35.1397 29.5315 35.3324 28.3442 35.4606C29.4271 36.4212 29.9687 37.9375 29.9687 40.0089V46.7673C29.9687 47.1513 30.0989 47.4718 30.3596 47.728C30.62 47.9837 31.0312 48.059 31.5938 47.9518C36.4276 46.3078 40.3703 43.3448 43.4221 39.0629C46.4737 34.7813 48 29.9608 48 24.6C47.9989 20.1378 46.9254 16.0221 44.7806 12.2528Z" fill="white"/>
</svg>
