<svg width="48" height="48" viewBox="0 0 48 48" fill="none" xmlns="http://www.w3.org/2000/svg">
<path fill-rule="evenodd" clip-rule="evenodd" d="M24.0027 48C37.2543 48 48 37.2543 48 23.9973C48 10.7457 37.2543 0 24.0027 0C10.7457 0 0 10.7457 0 23.9973C0 37.2543 10.7457 48 24.0027 48ZM18.3829 38.0367H29.6155C34.2771 38.0367 38.0688 34.2451 38.0688 29.5835V18.3454C38.0688 13.6893 34.2771 9.89766 29.6155 9.89766H18.3829C13.7213 9.89766 9.92969 13.6893 9.92969 18.3454V29.5835C9.92969 34.2451 13.7213 38.0367 18.3829 38.0367ZM12.5778 18.3454C12.5778 15.1447 15.1822 12.5403 18.3829 12.5403H29.6155C32.8163 12.5403 35.4206 15.1447 35.4206 18.3454V29.5835C35.4206 32.7843 32.8163 35.3886 29.6155 35.3886H18.3829C15.1822 35.3886 12.5778 32.7843 12.5778 29.5835V18.3454ZM31.4485 14.9203C30.5402 14.9203 29.8016 15.659 29.8016 16.5672C29.8016 17.4809 30.5402 18.2196 31.4485 18.2196C32.3622 18.2196 33.1008 17.4809 33.1008 16.5672C33.1008 15.659 32.3622 14.9203 31.4485 14.9203ZM31.0436 23.9645C31.0436 27.7835 27.9358 30.8966 24.1169 30.8966C20.2924 30.8966 17.1847 27.7835 17.1847 23.9645C17.1847 20.1455 20.2924 17.0378 24.1169 17.0378C27.9358 17.0378 31.0436 20.1455 31.0436 23.9645ZM28.5541 23.9645C28.5541 21.5188 26.5625 19.5272 24.1169 19.5272C21.6657 19.5272 19.6741 21.5188 19.6741 23.9645C19.6741 26.4101 21.6657 28.4017 24.1169 28.4017C26.5625 28.4017 28.5541 26.4101 28.5541 23.9645Z" fill="white"/>
</svg>
