<svg width="48" height="48" viewBox="0 0 48 48" fill="none" xmlns="http://www.w3.org/2000/svg">
<path fill-rule="evenodd" clip-rule="evenodd" d="M48 24C48 37.2586 37.2543 48 24.0027 48C10.7457 48 0 37.2586 0 24C0 10.7415 10.7457 0 24.0027 0C37.2543 0 48 10.7415 48 24ZM18.5861 19.5294V34.4624H13.9354V19.5294H18.5861ZM16.2607 12.1094C17.7489 12.1094 18.9527 13.3133 18.9527 14.7962C18.9527 16.2846 17.7489 17.4939 16.2607 17.4939C14.7725 17.4939 13.5688 16.2846 13.5688 14.7962C13.5688 13.3133 14.7725 12.1094 16.2607 12.1094ZM25.9507 19.5294H21.4971V34.4624H26.1368V27.0753C26.1368 25.1273 26.5033 23.2449 28.9217 23.2449C31.3017 23.2449 31.3346 25.472 31.3346 27.2011V34.4624H35.9688V26.2709C35.9688 22.249 35.1043 19.1628 30.4044 19.1628C28.1448 19.1628 26.6292 20.3995 26.0109 21.5705H25.9507V19.5294Z" fill="white"/>
</svg>
