<svg width="48" height="48" viewBox="0 0 48 48" fill="none" xmlns="http://www.w3.org/2000/svg">
<path fill-rule="evenodd" clip-rule="evenodd" d="M24.0027 48C37.2543 48 48 37.2543 48 23.9973C48 10.7457 37.2543 0 24.0027 0C10.7457 0 0 10.7457 0 23.9973C0 37.2543 10.7457 48 24.0027 48ZM34.6168 16.5289C35.5141 16.3812 36.4333 16.1514 37.2595 15.7739C37.3273 15.7433 37.3531 15.7254 37.3629 15.7319C37.3689 15.7358 37.3689 15.7489 37.3689 15.7739V15.7957C37.3689 15.8669 37.3689 16.031 37.2321 16.217C36.6193 17.0377 35.9573 17.7764 35.1366 18.3892C35.1115 18.4095 35.0822 18.4298 35.0517 18.451C34.9429 18.5265 34.8193 18.6123 34.8193 18.7448C34.8193 23.0671 33.7141 27.384 30.5626 30.5136C26.5521 34.4968 20.5336 35.5801 15.1936 34.1083C14.1541 33.8238 13.1692 33.4189 12.2172 32.9155C11.9053 32.7459 11.5935 32.5708 11.2926 32.3684C11.216 32.3082 11.1558 32.248 11.2214 32.2097C11.2871 32.1769 11.3363 32.1714 11.5771 32.2097C13.0707 32.3575 14.6137 32.1331 16.0253 31.6407C16.0714 31.6245 16.1206 31.6073 16.1725 31.5892C16.996 31.3016 18.4995 30.7765 18.9524 30.0869C18.9586 30.0776 18.9647 30.0736 18.9718 30.0689C18.9774 30.0653 18.9835 30.0612 18.9907 30.054C18.8733 30.0247 18.7559 30.0128 18.6397 30.0011C18.5609 29.9931 18.4826 29.9852 18.4053 29.972C16.9554 29.5561 15.013 28.8285 14.1157 26.3828C14.061 26.2405 14.1158 26.1639 14.2635 26.1913C15.4617 26.2898 15.8885 26.2241 16.3043 26.1311C16.069 26.0928 15.8338 26.0107 15.6149 25.9177C13.7875 25.2228 12.447 23.4392 12.2063 21.5133C12.1789 21.289 12.1625 21.0975 12.1734 20.895C12.1844 20.7473 12.2446 20.7035 12.3704 20.7856C13.3115 21.2725 14.3674 21.3874 14.455 21.3656C14.2197 21.185 14.0009 20.9826 13.793 20.7856C12.2063 19.281 11.588 16.2225 12.8573 14.324C12.9613 14.1708 13.0324 14.1708 13.1583 14.313C16.0581 17.6177 19.6309 19.1606 23.9423 19.8008C24.0517 19.8172 24.0626 19.8008 24.0462 19.6749C23.9368 18.9144 23.9204 18.1703 24.1064 17.4207C24.2924 16.6438 24.6645 15.9106 25.1678 15.2869C25.6603 14.6851 26.2676 14.1872 26.957 13.8315C27.6409 13.4704 28.3959 13.2516 29.1674 13.2023C29.9607 13.1531 30.765 13.2789 31.4982 13.5799C32.0617 13.8096 32.5542 14.116 33.0192 14.51C33.0923 14.5709 33.1563 14.6408 33.2225 14.713C33.2455 14.7382 33.2688 14.7636 33.2928 14.789C33.353 14.8492 33.4186 14.8711 33.5116 14.8492C34.6114 14.5756 35.6455 14.1872 36.6467 13.6455C36.696 13.6236 36.7342 13.6127 36.7889 13.6346C36.8327 13.6729 36.8163 13.7276 36.7944 13.7713C36.6139 14.3568 36.2965 14.8984 35.9135 15.3744C35.6673 15.6863 35.0381 16.4578 34.6168 16.5289Z" fill="white"/>
</svg>
