<svg width="48" height="48" viewBox="0 0 48 48" fill="none" xmlns="http://www.w3.org/2000/svg">
<path d="M23.9996 0C10.7451 0 0 10.7455 0 24C0 37.2541 10.7451 48 23.9996 48C37.2545 48 48 37.2541 48 24C48 10.7455 37.2545 0 23.9996 0ZM37.4383 29.4076C37.4383 31.2526 35.9427 32.7482 34.0981 32.7482C34.0981 32.7482 31.2451 33.1632 23.8357 33.1632C16.3834 33.1632 13.7637 32.7482 13.7637 32.7482C11.9187 32.7482 10.4227 31.2526 10.4227 29.4076V18.3845C10.4227 16.5399 11.9182 15.0439 13.7637 15.0439C13.7637 15.0439 16.3834 14.6289 23.8274 14.6289C31.2451 14.6289 34.0981 15.0439 34.0981 15.0439C35.9427 15.0439 37.4383 16.5395 37.4383 18.3845V29.4076Z" fill="white"/>
<path d="M19.8411 29.1856L28.9515 23.9257L19.8411 18.6658V29.1856Z" fill="white"/>
</svg>
